<?xml version="1.0" encoding="iso-8859-1"?>
<!-- Generator: Adobe Illustrator 19.0.0, SVG Export Plug-In . SVG Version: 6.00 Build 0)  -->
<svg version="1.1" id="Layer_1" xmlns="http://www.w3.org/2000/svg" xmlns:xlink="http://www.w3.org/1999/xlink" x="0px" y="0px"
	 viewBox="0 0 512.001 512.001" style="enable-background:new 0 0 512.001 512.001;fill:rgba(255,255,255,.85)" xml:space="preserve">
<g>
	<g>
		<g>
			<path d="M473.725,442.659L413.001,299.82c21.462-30.889,34.064-68.375,34.064-108.754C447.065,85.712,361.354,0,256,0
				C150.648,0,64.936,85.712,64.936,191.065c0,40.38,12.602,77.864,34.064,108.753l-60.724,142.84
				c-2.907,6.837-2.403,13.4,1.384,18.007c3.787,4.607,10.13,6.37,17.399,4.844l46.376-9.75c5.482-1.153,13.184,2.121,16.159,6.869
				l25.157,40.162c3.7,5.904,8.918,9.211,14.458,9.211c0.366,0,0.734-0.015,1.103-0.043c5.946-0.471,11.021-4.66,13.929-11.498
				l51.34-120.762c9.909,1.592,20.067,2.431,30.419,2.431c10.352,0,20.51-0.839,30.419-2.431L337.76,500.46
				c2.907,6.837,7.984,11.028,13.93,11.498c0.369,0.028,0.737,0.043,1.103,0.043c5.538,0,10.758-3.306,14.457-9.211l25.156-40.162
				c2.976-4.749,10.677-8.026,16.161-6.87l46.374,9.75c7.271,1.526,13.613-0.237,17.4-4.844
				C476.127,456.058,476.632,449.495,473.725,442.659z M84.191,443.176l-30.48,6.408c-0.268,0.057-0.51,0.099-0.727,0.128
				c0.072-0.206,0.158-0.435,0.267-0.688l57.138-134.404c6.122,7.204,12.766,13.951,19.875,20.18L84.191,443.176z M103.489,439.375
				l39.966-94.013c7.957,5.82,16.374,11.046,25.194,15.599l-38.006,89.4C124.061,442.988,113.302,438.612,103.489,439.375z
				 M159.266,494.094c-0.107,0.253-0.211,0.475-0.311,0.67c-0.129-0.177-0.267-0.38-0.412-0.612l-17.176-27.421l42.059-98.934
				c8.354,3.444,17.001,6.313,25.896,8.556L159.266,494.094z M256,365.858c-96.381,0-174.792-78.411-174.792-174.792
				S159.62,16.272,256,16.272s174.794,78.412,174.794,174.794S352.382,365.858,256,365.858z M353.458,494.151
				c-0.145,0.233-0.283,0.435-0.412,0.612c-0.1-0.195-0.204-0.418-0.311-0.67l-50.055-117.742
				c8.895-2.241,17.542-5.112,25.896-8.556l42.059,98.934L353.458,494.151z M381.358,450.361l-38.006-89.4
				c8.82-4.553,17.236-9.779,25.193-15.598l39.968,94.011C398.698,438.607,387.941,442.986,381.358,450.361z M458.288,449.584
				l-30.479-6.408l-46.075-108.375c7.112-6.228,13.754-12.976,19.876-20.18l57.138,134.404c0.109,0.252,0.195,0.481,0.266,0.688
				C458.799,449.683,458.557,449.642,458.288,449.584z"/>
			<path d="M256,88.098c-56.776,0-102.967,46.191-102.967,102.967S199.224,294.031,256,294.031
				c56.777,0,102.968-46.19,102.968-102.966S312.777,88.098,256,88.098z M256,277.76c-47.804,0-86.695-38.891-86.695-86.694
				c0-47.804,38.891-86.695,86.695-86.695s86.697,38.891,86.697,86.695C342.697,238.868,303.805,277.76,256,277.76z"/>
			<path d="M256,45.869c-80.062,0-145.196,65.134-145.196,145.196c0,80.061,65.134,145.195,145.196,145.195
				s145.198-65.134,145.198-145.195C401.198,111.003,336.062,45.869,256,45.869z M256,319.988
				c-71.09,0-128.925-57.834-128.925-128.924c0-71.089,57.835-128.925,128.925-128.925s128.926,57.835,128.926,128.925
				S327.09,319.988,256,319.988z"/>
		</g>
	</g>
</g>
<g>
</g>
<g>
</g>
<g>
</g>
<g>
</g>
<g>
</g>
<g>
</g>
<g>
</g>
<g>
</g>
<g>
</g>
<g>
</g>
<g>
</g>
<g>
</g>
<g>
</g>
<g>
</g>
<g>
</g>
</svg>
